HIERARCHY
ROOT Hips
{
 OFFSET 0.000000 0.000000 0.000000
 CHANNELS 6 Xposition Yposition Zposition Yrotation Xrotation Zrotation
 JOINT Chest
 {
  OFFSET 0.000000 9.585900 0.002600
  CHANNELS 3 Yrotation Xrotation Zrotation
  JOINT Chest2
  {
   OFFSET 0.000000 9.601200 -0.005300
   CHANNELS 3 Yrotation Xrotation Zrotation
   JOINT Chest3
   {
    OFFSET 0.000000 9.561800 0.000000
    CHANNELS 3 Yrotation Xrotation Zrotation
    JOINT Chest4
    {
     OFFSET 0.000000 9.552100 0.000000
     CHANNELS 3 Yrotation Xrotation Zrotation
     JOINT Neck
     {
      OFFSET 0.000000 14.453000 0.000000
      CHANNELS 3 Yrotation Xrotation Zrotation
      JOINT Head
      {
       OFFSET 0.000000 8.936500 -0.011300
       CHANNELS 3 Yrotation Xrotation Zrotation
       End Site
       {
        OFFSET 0.000000 17.073600 -0.006000
       }
      }
     }
     JOINT RightCollar
     {
      OFFSET -2.921100 9.558500 0.000000
      CHANNELS 3 Yrotation Xrotation Zrotation
      JOINT RightShoulder
      {
       OFFSET -13.519700 0.000000 0.000000
       CHANNELS 3 Yrotation Xrotation Zrotation
       JOINT RightElbow
       {
        OFFSET 0.000000 -29.696600 0.000000
        CHANNELS 3 Yrotation Xrotation Zrotation
        JOINT RightWrist
        {
         OFFSET 0.000000 -24.004700 0.000000
         CHANNELS 3 Yrotation Xrotation Zrotation
         End Site
         {
          OFFSET 0.000000 -17.728500 0.000000
         }
        }
       }
      }
     }
     JOINT LeftCollar
     {
      OFFSET 2.921100 9.558500 0.000000
      CHANNELS 3 Yrotation Xrotation Zrotation
      JOINT LeftShoulder
      {
       OFFSET 13.519700 0.000000 0.000000
       CHANNELS 3 Yrotation Xrotation Zrotation
       JOINT LeftElbow
       {
        OFFSET 0.000000 -29.696600 0.000000
        CHANNELS 3 Yrotation Xrotation Zrotation
        JOINT LeftWrist
        {
         OFFSET 0.000000 -24.004700 0.000000
         CHANNELS 3 Yrotation Xrotation Zrotation
         End Site
         {
          OFFSET 0.000000 -17.728500 0.000000
         }
        }
       }
      }
     }
    }
   }
  }
 }
 JOINT RightHip
 {
  OFFSET -7.771700 -0.012900 -0.001300
  CHANNELS 3 Yrotation Xrotation Zrotation
  JOINT RightKnee
  {
   OFFSET 0.000000 -40.869800 0.001200
   CHANNELS 3 Yrotation Xrotation Zrotation
   JOINT RightAnkle
   {
    OFFSET 0.000000 -39.717900 0.002100
    CHANNELS 3 Yrotation Xrotation Zrotation
    JOINT RightToe
    {
     OFFSET 0.000000 -4.965400 11.033500
     CHANNELS 3 Yrotation Xrotation Zrotation
     End Site
     {
      OFFSET 0.000000 -1.423100 5.872300
     }
    }
   }
  }
 }
 JOINT LeftHip
 {
  OFFSET 7.771700 -0.012900 -0.001300
  CHANNELS 3 Yrotation Xrotation Zrotation
  JOINT LeftKnee
  {
   OFFSET 0.000000 -40.869800 0.001200
   CHANNELS 3 Yrotation Xrotation Zrotation
   JOINT LeftAnkle
   {
    OFFSET 0.000000 -39.717900 0.002100
    CHANNELS 3 Yrotation Xrotation Zrotation
    JOINT LeftToe
    {
     OFFSET 0.000000 -4.965400 11.033500
     CHANNELS 3 Yrotation Xrotation Zrotation
     End Site
     {
      OFFSET 0.000000 -1.423100 5.872300
     }
    }
   }
  }
 }
}
MOTION
Frames: 14
Frame Time: 0.008333
-29.124341 57.953282 13.220722 177.677186 -51.548056 -4.035265 3.302797 22.657525 3.193761 1.703596 12.965984 1.660038 2.204470 16.198909 2.151256 1.703589 12.966002 1.660050 1.251718 17.453422 4.141603 0.975180 -3.337077 7.192981 2.130723 5.197589 -0.370336 -10.870038 -18.465435 -2.341694 -54.879105 -63.112913 96.621020 6.696729 18.177091 -20.086693 -9.078029 1.622303 -0.689234 6.172868 -16.192574 5.054749 53.276563 -54.080276 -88.499757 5.448570 10.202908 9.500473 1.870702 -20.115596 -2.976745 -31.711831 73.283175 -35.229226 6.865970 -13.117081 10.764418 0.013115 0.024425 0.046952 -6.223676 -17.498749 6.522640 86.604457 82.766403 85.889604 0.868564 -21.847769 -17.499299 -0.032325 0.010338 0.007897
-29.123956 57.952218 13.220238 177.697653 -51.542860 -4.064390 3.319481 22.654737 3.226578 1.705905 12.966977 1.661094 2.192231 16.196793 2.148893 1.720294 12.970881 1.660831 1.245014 17.445737 4.130620 0.962181 -3.351839 7.180425 2.109127 5.190439 -0.372098 -10.824965 -18.419752 -2.391282 -54.934037 -63.103036 96.774475 6.697023 18.183260 -20.081722 -9.069559 1.610621 -0.691253 6.148897 -16.183421 5.087182 53.470417 -54.090743 -88.886916 5.470623 10.226752 9.546738 1.863504 -20.119187 -2.955890 -31.728535 73.285186 -35.261731 6.869751 -13.133711 10.782238 0.003094 0.023704 0.039006 -6.216125 -17.507765 6.564181 86.592499 82.793659 85.881691 0.835397 -21.840459 -17.485869 -0.012113 0.000109 0.019322
-29.126986 57.951772 13.218996 177.716431 -51.541695 -4.069890 3.316118 22.655983 3.226278 1.706986 12.967669 1.661707 2.192443 16.196634 2.148798 1.739943 12.977156 1.661798 1.252116 17.439935 4.112333 0.934022 -3.368515 7.183020 2.093146 5.186837 -0.379095 -10.790455 -18.376875 -2.431652 -54.976007 -63.097345 96.917446 6.696980 18.188865 -20.078105 -9.064042 1.600566 -0.693343 6.130236 -16.175661 5.126853 53.602766 -54.091756 -89.164199 5.476788 10.226005 9.527195 1.865585 -20.117267 -2.959538 -31.737072 73.290914 -35.284918 6.867693 -13.150688 10.791421 -0.001773 0.021606 0.038466 -6.206449 -17.513175 6.577947 86.587147 82.812794 85.876791 0.816209 -21.840520 -17.476542 -0.004364 0.000105 0.025203
-29.129963 57.951819 13.217549 177.725329 -51.542903 -4.065844 3.319445 22.658959 3.225363 1.708011 12.968951 1.662473 2.228145 16.204715 2.157890 1.726120 12.971708 1.660196 1.228079 17.432679 4.119670 0.942305 -3.378602 7.154892 2.080375 5.180101 -0.384920 -10.762388 -18.330452 -2.468388 -55.000083 -63.095153 97.043597 6.695237 18.192093 -20.071666 -9.061213 1.592986 -0.691092 6.098127 -16.171284 5.146302 53.683643 -54.104638 -89.351170 5.477214 10.209272 9.481509 1.884380 -20.109278 -2.962873 -31.750047 73.292537 -35.306255 6.863420 -13.172405 10.799299 -0.009090 0.024439 0.040841 -6.201674 -17.513535 6.578708 86.575122 82.813532 85.847178 0.800551 -21.839782 -17.455207 -0.003533 0.002286 0.022193
-29.140591 57.951321 13.215715 177.757109 -51.539948 -4.031473 3.304303 22.663387 3.185083 1.737581 12.974287 1.671531 2.185818 16.196612 2.151585 1.741244 12.975952 1.657825 1.225810 17.426543 4.112405 0.944523 -3.391471 7.112885 2.071972 5.170401 -0.388738 -10.746462 -18.294298 -2.493145 -54.969779 -63.094593 97.120424 6.695137 18.193338 -20.059655 -9.064901 1.585734 -0.684451 6.073056 -16.166308 5.174626 53.762566 -54.105085 -89.541172 5.478752 10.188714 9.440765 1.908479 -20.104222 -3.017330 -31.759081 73.296887 -35.322632 6.847410 -13.186649 10.810117 -0.014642 0.025064 0.046986 -6.196761 -17.523046 6.532322 86.532252 82.811446 85.770045 0.783431 -21.839473 -17.416337 -0.004510 0.012074 0.010242
-29.144571 57.950695 13.215043 177.776854 -51.532708 -4.025380 3.307016 22.662970 3.178172 1.741242 12.974485 1.675302 2.188756 16.194641 2.148638 1.727528 12.974687 1.661912 1.234570 17.423077 4.096264 0.942030 -3.401575 7.087921 2.080716 5.163684 -0.396246 -10.711603 -18.251841 -2.532847 -54.960432 -63.089878 97.200206 6.697034 18.190583 -20.049369 -9.043384 1.576460 -0.683892 6.039838 -16.154762 5.206508 53.838459 -54.099329 -89.733831 5.482186 10.168123 9.406014 1.927037 -20.109482 -3.028268 -31.798193 73.302839 -35.370427 6.828573 -13.198368 10.829135 -0.011684 0.022736 0.047923 -6.192449 -17.533767 6.529212 86.504283 82.811784 85.722159 0.767696 -21.834895 -17.400617 -0.013199 0.015230 0.015234
-29.147736 57.951028 13.213840 177.805689 -51.531217 -4.028932 3.306327 22.667294 3.178830 1.743553 12.975714 1.676339 2.221317 16.206816 2.155633 1.683337 12.960597 1.663340 1.242898 17.423141 4.081544 0.937966 -3.417910 7.068993 2.095553 5.154193 -0.401430 -10.660467 -18.200775 -2.589389 -54.969777 -63.082876 97.284168 6.694669 18.180324 -20.050817 -9.011687 1.562076 -0.686327 5.997249 -16.144581 5.246355 53.906349 -54.081894 -89.923161 5.489021 10.150348 9.377245 1.953431 -20.105170 -3.022453 -31.853894 73.306250 -35.439883 6.782219 -13.211164 10.861663 -0.009962 0.017054 0.044647 -6.191693 -17.539763 6.532671 86.489370 82.820571 85.693530 0.738443 -21.831542 -17.378945 -0.007866 0.013335 0.016313
-29.143373 57.951403 13.213706 177.822211 -51.527006 -4.066339 3.333351 22.664435 3.229517 1.728999 12.975327 1.668518 2.239013 16.211090 2.160751 1.711350 12.971900 1.663713 1.237459 17.410070 4.057356 0.905173 -3.438473 7.075425 2.073429 5.132149 -0.397784 -10.623965 -18.163227 -2.632125 -54.920151 -63.078075 97.316996 6.688654 18.164428 -20.061359 -9.049673 1.539851 -0.674397 5.975117 -16.134572 5.286054 53.973393 -54.057930 -90.111749 5.498434 10.133876 9.355747 1.947770 -20.107110 -2.987521 -31.897573 73.302126 -35.479088 6.770395 -13.220377 10.855552 -0.007612 0.017464 0.046406 -6.187469 -17.545208 6.597678 86.452568 82.857391 85.658192 0.704480 -21.824265 -17.358878 0.009155 0.002910 0.018725
-29.147497 57.951992 13.212360 177.860212 -51.525867 -4.068162 3.319347 22.669775 3.217078 1.719863 12.973917 1.664364 2.258485 16.213524 2.166992 1.721309 12.975916 1.665430 1.211302 17.400005 4.055333 0.903064 -3.446546 7.054076 2.088555 5.114555 -0.407549 -10.608279 -18.122361 -2.663164 -54.855173 -63.070546 97.329987 6.683174 18.151655 -20.072036 -9.070922 1.527139 -0.670282 5.942511 -16.123982 5.333246 54.032220 -54.021934 -90.292940 5.509217 10.115087 9.339505 1.954456 -20.101800 -3.004407 -31.912946 73.303370 -35.505478 6.752091 -13.229456 10.868159 -0.007793 0.014185 0.046234 -6.192149 -17.549039 6.582580 86.423354 82.867070 85.623238 0.691383 -21.823041 -17.351629 0.012997 0.003311 0.021842
-29.155424 57.952752 13.210395 177.883139 -51.527775 -4.034628 3.311766 22.674696 3.185402 1.721456 12.976182 1.665399 2.258366 16.214809 2.168480 1.722425 12.977491 1.666201 1.193785 17.393977 4.051545 0.894407 -3.450976 7.055434 2.072822 5.104998 -0.406475 -10.547451 -18.090763 -2.708232 -54.780548 -63.059288 97.332021 6.679219 18.145892 -20.077927 -9.063299 1.520111 -0.669534 5.867954 -16.101865 5.421825 54.133139 -53.955251 -90.513014 5.520571 10.090815 9.323909 1.984634 -20.092791 -3.039991 -31.950636 73.305315 -35.569547 6.738705 -13.241605 10.900420 -0.018278 0.006243 0.042466 -6.177516 -17.553475 6.551615 86.412106 82.874062 85.581745 0.657916 -21.825790 -17.314072 0.014150 0.006138 0.025349
-29.156904 57.953327 13.209358 177.898073 -51.526419 -4.033677 3.342450 22.673457 3.213170 1.729333 12.979530 1.669645 2.215032 16.212203 2.155806 1.736608 12.982263 1.666463 1.189024 17.387158 4.039425 0.883634 -3.458998 7.034604 2.061937 5.095358 -0.405785 -10.488321 -18.057911 -2.751860 -54.692253 -63.048593 97.321559 6.675722 18.140285 -20.078910 -9.051674 1.509521 -0.669031 5.797382 -16.082174 5.494453 54.192120 -53.887615 -90.702373 5.533312 10.060072 9.308425 1.989894 -20.091195 -3.045076 -31.967751 73.308152 -35.599258 6.739791 -13.254386 10.903755 -0.024367 0.004313 0.042744 -6.166978 -17.558369 6.561554 86.391461 82.891893 85.548257 0.656032 -21.822604 -17.304994 0.001767 0.008149 0.036406
-29.161746 57.953841 13.207876 177.920318 -51.525374 -4.018862 3.321542 22.675308 3.184431 1.742311 12.981650 1.676245 2.208632 16.212352 2.154010 1.750292 12.986230 1.666462 1.200746 17.386637 4.008902 0.857681 -3.473443 7.038892 2.090034 5.083556 -0.411177 -10.464077 -18.017889 -2.786914 -54.594520 -63.040338 97.300489 6.670015 18.132704 -20.078909 -9.043455 1.496644 -0.669363 5.737651 -16.059528 5.557836 54.222084 -53.817500 -90.879724 5.551082 10.026679 9.295851 1.997321 -20.087803 -3.071943 -31.979118 73.313766 -35.625006 6.735527 -13.276790 10.894239 -0.034805 0.009836 0.056900 -6.163871 -17.563382 6.539725 86.372667 82.899286 85.510727 0.654151 -21.820087 -17.285173 0.006747 0.008185 0.026481
-29.164396 57.954653 13.206337 177.945304 -51.525870 -4.020425 3.322771 22.679153 3.187713 1.744016 12.981595 1.677772 2.207712 16.215290 2.151765 1.754067 12.986585 1.668639 1.181761 17.380556 4.004468 0.867158 -3.482566 6.958421 2.086709 5.074909 -0.411785 -10.400704 -17.982397 -2.830179 -54.487875 -63.031014 97.268934 6.660126 18.125642 -20.085544 -9.039413 1.482878 -0.668990 5.683245 -16.032698 5.622051 54.241931 -53.735362 -91.061122 5.574619 9.995294 9.287921 2.032745 -20.079554 -3.076916 -32.070518 73.307924 -35.705425 6.712110 -13.293622 10.907090 -0.029712 0.012776 0.057529 -6.166695 -17.566112 6.531332 86.369303 82.909171 85.495998 0.652131 -21.818716 -17.270149 0.002650 0.008556 0.022524
-29.165598 57.955503 13.204843 177.965047 -51.526472 -4.027959 3.357852 22.680972 3.228731 1.726049 12.983007 1.666863 2.233172 16.219977 2.160783 1.718719 12.981507 1.666692 1.166793 17.375551 3.998839 0.864713 -3.486438 6.933824 2.087384 5.068619 -0.413872 -10.332222 -17.951128 -2.871880 -54.367915 -63.021619 97.223038 6.645169 18.118188 -20.100413 -9.023321 1.467772 -0.672108 5.619424 -15.998506 5.689388 54.257408 -53.641532 -91.247627 5.599904 9.966382 9.283758 2.044287 -20.075836 -3.072730 -32.128216 73.309567 -35.770479 6.698986 -13.313982 10.913585 -0.025191 0.015562 0.060503 -6.148373 -17.569312 6.547273 86.337848 82.940410 85.478424 0.624634 -21.819068 -17.260877 0.021795 0.001867 0.031236
